<?xml version="1.0" encoding="UTF-8" standalone="no"?>
<!DOCTYPE svg PUBLIC "-//W3C//DTD SVG 1.1//EN" "http://www.w3.org/Graphics/SVG/1.1/DTD/svg11.dtd">
<svg width="100%" height="100%" viewBox="0 0 512 512" version="1.1" xmlns="http://www.w3.org/2000/svg" xmlns:xlink="http://www.w3.org/1999/xlink" xml:space="preserve" xmlns:serif="http://www.serif.com/" style="fill-rule:evenodd;clip-rule:evenodd;stroke-linecap:round;stroke-linejoin:round;stroke-miterlimit:1.5;"><link xmlns="" type="text/css" rel="stylesheet" id="dark-mode-general-link"/><link xmlns="" type="text/css" rel="stylesheet" id="dark-mode-custom-link"/><style xmlns="" type="text/css" id="dark-mode-custom-style"/>
    <g transform="matrix(1,0,0,1,-15.529,18.4121)">
        <g id="L">
            <g transform="matrix(-2.48814,0,0,-3.82763,546.307,386.771)">
                <path d="M83.153,47.843L83.153,83.312L110.435,65.578L83.153,47.843Z" style="fill:rgb(0,181,216);"/>
            </g>
            <g transform="matrix(-2.48814,0,0,-3.82763,546.307,522.535)">
                <path d="M83.153,47.843L83.153,83.312L110.435,65.578L83.153,47.843Z" style="fill:rgb(0,181,216);"/>
            </g>
            <g transform="matrix(2.48814,0,0,3.82763,64.6328,-47.3597)">
                <path d="M83.153,47.843L83.153,83.312L110.435,65.578L83.153,47.843Z" style="fill:rgb(0,181,216);"/>
            </g>
            <g transform="matrix(2.48814,0,0,3.82763,64.6328,88.4048)">
                <path d="M83.153,47.843L83.153,83.312L110.435,65.578L83.153,47.843Z" style="fill:rgb(0,181,216);"/>
            </g>
            <g transform="matrix(1.52354e-16,-2.48814,3.82763,2.34375e-16,88.4048,614.19)">
                <path d="M83.153,47.843L83.153,83.312L110.435,65.578L83.153,47.843Z" style="fill:rgb(0,181,216);"/>
            </g>
            <g transform="matrix(1.52354e-16,2.48814,3.82763,-2.34375e-16,156.287,132.515)">
                <path d="M83.153,47.843L83.153,83.312L110.435,65.578L83.153,47.843Z" style="fill:rgb(0,181,216);"/>
            </g>
        </g>
        <g>
            <g transform="matrix(2.48814,0,0,3.82763,-139.014,-115.242)">
                <path d="M83.153,47.843L83.153,83.312L110.435,65.578L83.153,47.843Z" style="fill:rgb(11,197,234);"/>
            </g>
            <g transform="matrix(2.48814,0,0,3.82763,-139.014,20.5225)">
                <path d="M83.153,47.843L83.153,83.312L110.435,65.578L83.153,47.843Z" style="fill:rgb(11,197,234);"/>
            </g>
            <g transform="matrix(2.48814,0,0,3.82763,-71.1317,-47.3597)">
                <path d="M83.153,47.843L83.153,83.312L110.435,65.578L83.153,47.843Z" style="fill:rgb(11,197,234);"/>
            </g>
            <g transform="matrix(2.48814,0,0,3.82763,-3.24941,20.5225)">
                <path d="M83.153,47.843L83.153,83.312L110.435,65.578L83.153,47.843Z" style="fill:rgb(11,197,234);"/>
            </g>
            <g transform="matrix(2.48814,0,0,3.82763,-3.24941,-115.242)">
                <path d="M83.153,47.843L83.153,83.312L110.435,65.578L83.153,47.843Z" style="fill:rgb(11,197,234);"/>
            </g>
            <g transform="matrix(-2.48814,0,0,-3.82763,342.661,454.653)">
                <path d="M83.153,47.843L83.153,83.312L110.435,65.578L83.153,47.843Z" style="fill:rgb(11,197,234);"/>
            </g>
            <g transform="matrix(-2.48814,0,0,-3.82763,342.661,590.418)">
                <path d="M83.153,47.843L83.153,83.312L110.435,65.578L83.153,47.843Z" style="fill:rgb(11,197,234);"/>
            </g>
            <g transform="matrix(-2.48814,0,0,-3.82763,410.543,522.535)">
                <path d="M83.153,47.843L83.153,83.312L110.435,65.578L83.153,47.843Z" style="fill:rgb(11,197,234);"/>
            </g>
            <g transform="matrix(-2.48814,0,0,-3.82763,478.425,590.418)">
                <path d="M83.153,47.843L83.153,83.312L110.435,65.578L83.153,47.843Z" style="fill:rgb(11,197,234);"/>
            </g>
            <g transform="matrix(-2.48814,0,0,-3.82763,478.425,454.653)">
                <path d="M83.153,47.843L83.153,83.312L110.435,65.578L83.153,47.843Z" style="fill:rgb(11,197,234);"/>
            </g>
        </g>
    </g>
</svg>