<svg xmlns="http://www.w3.org/2000/svg" width="1557.24" height="398.507"><link id="dark-mode-general-link" rel="stylesheet" type="text/css"/><link id="dark-mode-custom-link" rel="stylesheet" type="text/css"/><style id="dark-mode-custom-style" type="text/css"/><path fill="#333" d="M59.475 285.79h-42.34V84.673h42.34v201.119M127.515 186.181c0 19.278 6.17 34.968 18.524 47.067 12.348 12.097 26.84 18.144 43.473 18.144 16.636 0 30.744-6.11 42.341-18.333 11.587-12.224 17.392-27.91 17.392-47.067 0-19.148-5.805-35.157-17.392-48.013-11.597-12.852-25.84-19.278-42.717-19.278-16.89 0-31.379 6.426-43.476 19.278-12.096 12.856-18.145 28.921-18.145 48.202m-13.99 73.907c-18.9-19.148-28.352-44.356-28.352-75.607 0-31.246 9.697-56.201 29.109-74.854 19.403-18.654 42.53-27.972 69.371-27.972 26.84 0 48.452 11.338 64.836 34.018V5.288h42.339v280.508h-42.339v-30.248c-15.628 22.187-38.44 33.272-68.425 33.272-25.464 0-47.635-9.575-66.539-28.732M351.316 170.492H466.62c0-16.888-5.292-29.87-15.884-38.939-10.587-9.07-23.628-13.61-39.123-13.61-15.501 0-29.425 4.73-41.773 14.173-12.352 9.455-18.524 22.252-18.524 38.376m157.645 33.27H351.316c1 14.618 7.683 26.402 20.036 35.347 12.343 8.946 26.461 13.42 42.341 13.42 25.199 0 44.351-7.941 57.463-23.816l24.196 26.456c-21.677 22.44-49.904 33.646-84.683 33.646-28.232 0-52.238-9.384-72.017-28.163-19.792-18.768-29.677-43.973-29.677-75.603 0-31.629 10.08-56.774 30.244-75.422 20.16-18.648 43.906-27.978 71.261-27.978 27.34 0 50.599 8.262 69.75 24.76 19.153 16.519 28.731 39.263 28.731 68.244v29.11M660.935 210.943v-17.014H613.3c-30.502 0-45.744 9.584-45.744 28.732 0 9.834 3.782 17.327 11.335 22.491 7.568 5.173 18.08 7.752 31.57 7.752 13.485 0 25.263-3.776 35.346-11.345 10.084-7.554 15.127-17.76 15.127-30.616m42.336 74.848h-38.559v-26.84c-16.633 19.916-38.944 29.864-66.907 29.864-20.924 0-38.256-5.912-51.985-17.761-13.744-11.849-20.604-27.66-20.604-47.45 0-19.781 7.304-34.588 21.93-44.421 14.609-9.83 34.4-14.743 59.35-14.743h54.813v-7.559c0-26.714-14.877-40.076-44.606-40.076-18.659 0-38.055 6.806-58.226 20.415l-18.898-26.456c24.441-19.407 52.169-29.115 83.166-29.115 23.687 0 43.034 5.991 58.036 17.96 14.987 11.974 22.49 30.807 22.49 56.519v129.663M836.341 288.82c-27.977 0-52.045-9.51-72.209-28.548-20.167-19.023-30.244-43.912-30.244-74.659 0-30.746 10.527-55.761 31.57-75.044 21.04-19.277 46.691-28.92 76.935-28.92 30.243 0 55.811 10.462 76.735 31.38l-24.945 30.622c-17.391-15.122-34.912-22.68-52.554-22.68-17.64 0-32.957 5.857-45.922 17.577-12.992 11.719-19.478 26.84-19.478 45.364 0 18.524 6.431 34.21 19.287 47.065 12.848 12.852 28.663 19.278 47.445 19.278 18.77 0 36.48-8.566 53.108-25.703l24.955 27.215c-24.456 24.71-52.679 37.053-84.683 37.053M1055.221 124.373c-20.918 0-36.673 6.806-47.254 20.411-10.578 13.605-15.876 31.884-15.876 54.817v86.195h-42.34V84.672h42.34v40.45c6.805-12.591 16.06-22.929 27.784-30.991 11.718-8.067 24.132-12.228 37.237-12.476l.379 42.718h-2.27M1205.293 210.943v-17.014h-47.618c-30.508 0-45.75 9.584-45.75 28.732 0 9.834 3.782 17.327 11.34 22.491 7.568 5.173 18.08 7.752 31.56 7.752 13.486 0 25.264-3.776 35.352-11.345 10.083-7.554 15.116-17.76 15.116-30.616m42.347 74.848h-38.565v-26.84c-16.634 19.916-38.934 29.864-66.907 29.864-20.923 0-38.25-5.912-51.975-17.761-13.744-11.849-20.604-27.66-20.604-47.45 0-19.781 7.299-34.588 21.922-44.421 14.617-9.83 34.404-14.743 59.358-14.743h54.804v-7.559c0-26.714-14.868-40.076-44.596-40.076-18.664 0-38.066 6.806-58.226 20.415l-18.908-26.456c24.445-19.407 52.174-29.115 83.176-29.115 23.686 0 43.024 5.991 58.036 17.96 14.981 11.974 22.485 30.807 22.485 56.519v129.663M1336.107 68.044v16.633h52.92v34.024h-52.92v167.095h-42.344V118.7h-25.324V84.677h25.324V69.176c0-21.173 6.36-37.996 19.092-50.468 12.726-12.477 28.092-18.713 46.118-18.713 18.027 0 34.467 6.674 49.334 20.036l-17.387 29.864c-8.32-8.816-17.013-13.232-26.093-13.232-9.067 0-16.12 2.834-21.16 8.506-5.054 5.674-7.56 13.302-7.56 22.875M1474.453 118.701v102.07c0 9.578 2.52 17.201 7.574 22.873 5.04 5.668 12.093 8.501 21.16 8.501 9.08 0 17.773-4.4 26.093-13.23l17.387 29.869c-14.867 13.354-31.32 20.036-49.334 20.036-18.026 0-33.4-6.241-46.12-18.715-12.733-12.477-19.093-29.3-19.093-50.468V118.701h-25.333V84.677h25.333V21.543h42.333v63.134h52.934v34.024h-52.934"/><path fill="#5392c1" d="M95.316 322.93h20.974v73.646h-13.932V336.1h-15.16l8.118-13.17"/><path fill="#5a98cb" d="M146.35 322.93h20.986v73.646h-13.913V336.1h-15.167l8.095-13.17"/><path fill="#60a6d0" d="M239.876 377.657c-4.665 4.8-10.32 7.195-16.96 7.195-5.88 0-11.076-1.836-15.63-5.553-5.827-4.724-8.766-11.175-8.766-19.318 0-7.304 2.337-13.334 6.984-18.064 4.625-4.76 10.357-7.109 17.175-7.109 6.725 0 12.45 2.404 17.144 7.283 4.717 4.845 7.077 10.786 7.077 17.796 0 7.024-2.344 12.96-7.024 17.77m9.797-45.254c-7.48-7.543-16.448-11.32-26.854-11.32-6.878 0-13.3 1.716-19.26 5.173-5.956 3.448-10.642 8.148-14.036 14.05-3.395 5.92-5.119 12.391-5.119 19.42 0 10.518 3.667 19.593 10.977 27.231 7.318 7.657 16.494 11.47 27.535 11.47 10.535 0 19.512-3.702 26.912-11.16 7.399-7.435 11.088-16.544 11.088-27.286 0-10.841-3.741-20.04-11.243-27.578"/><path fill="#54afdc" d="M326.736 377.657c-4.665 4.8-10.315 7.195-16.957 7.195-5.888 0-11.076-1.836-15.626-5.553-5.848-4.724-8.773-11.175-8.773-19.318 0-7.304 2.33-13.334 6.97-18.064 4.634-4.76 10.365-7.109 17.189-7.109 6.722 0 12.445 2.404 17.142 7.283 4.732 4.845 7.079 10.786 7.079 17.796 0 7.024-2.337 12.96-7.024 17.77m9.799-45.254c-7.496-7.543-16.439-11.32-26.871-11.32-6.86 0-13.29 1.716-19.235 5.173-5.97 3.448-10.641 8.148-14.052 14.05-3.394 5.92-5.11 12.391-5.11 19.42 0 10.518 3.653 19.593 10.972 27.231 7.314 7.657 16.494 11.47 27.54 11.47 10.544 0 19.512-3.702 26.905-11.16 7.399-7.435 11.095-16.544 11.095-27.286 0-10.841-3.748-20.04-11.244-27.578"/><path fill="#45a9d8" d="M365.145 322.93h20.984v73.646H372.2V336.1h-15.156l8.101-13.17"/><path fill="#419ad4" d="M418.248 322.93h20.983v73.646h-13.928V336.1h-15.147l8.092-13.17"/><path fill="#347fb6" d="M511.96 377.657c-4.675 4.8-10.327 7.195-16.977 7.195-5.878 0-11.071-1.836-15.615-5.553-5.837-4.724-8.761-11.175-8.761-19.318 0-7.304 2.325-13.334 6.969-18.064 4.62-4.76 10.352-7.109 17.177-7.109 6.735 0 12.443 2.404 17.167 7.283 4.71 4.845 7.055 10.786 7.055 17.796 0 7.024-2.335 12.96-7.015 17.77m9.793-45.254c-7.482-7.543-16.438-11.32-26.86-11.32-6.874 0-13.301 1.716-19.242 5.173-5.972 3.448-10.656 8.148-14.055 14.05-3.392 5.92-5.117 12.391-5.117 19.42 0 10.518 3.661 19.593 10.974 27.231 7.315 7.657 16.499 11.47 27.53 11.47 10.557 0 19.521-3.702 26.916-11.16 7.402-7.435 11.094-16.544 11.094-27.286 0-10.841-3.746-20.04-11.24-27.578"/><path fill="#3886c0" d="M601.632 377.657c-4.676 4.8-10.317 7.195-16.968 7.195-5.877 0-11.07-1.836-15.616-5.553-5.856-4.724-8.77-11.175-8.77-19.318 0-7.304 2.315-13.334 6.96-18.064 4.645-4.76 10.371-7.109 17.191-7.109 6.731 0 12.443 2.404 17.152 7.283 4.72 4.845 7.075 10.786 7.075 17.796 0 7.024-2.34 12.96-7.024 17.77m9.793-45.254c-7.493-7.543-16.444-11.32-26.876-11.32-6.86 0-13.285 1.716-19.232 5.173-5.966 3.448-10.652 8.148-14.054 14.05-3.387 5.92-5.099 12.391-5.099 19.42 0 10.518 3.667 19.593 10.976 27.231 7.31 7.657 16.484 11.47 27.524 11.47 10.547 0 19.512-3.702 26.91-11.16 7.4-7.435 11.095-16.544 11.095-27.286 0-10.841-3.75-20.04-11.244-27.578"/><path fill="#3480ad" d="M640.207 322.93h20.982v73.646H647.26V336.1h-15.161l8.108-13.17"/><path fill="#2a6b92" d="M689.477 322.93h20.978v73.646H696.54V336.1h-15.166l8.102-13.17"/><path fill="#3279af" d="M741.203 322.93h20.988v73.646h-13.935V336.1H733.1l8.103-13.17"/><path fill="#3783bc" d="M837.728 377.657c-4.675 4.8-10.337 7.195-16.977 7.195-5.878 0-11.056-1.836-15.62-5.553-5.843-4.724-8.767-11.175-8.767-19.318 0-7.304 2.33-13.334 6.985-18.064 4.615-4.76 10.347-7.109 17.172-7.109 6.73 0 12.452 2.404 17.147 7.283 4.73 4.845 7.08 10.786 7.08 17.796 0 7.024-2.335 12.96-7.02 17.77m9.788-45.254c-7.493-7.543-16.448-11.32-26.865-11.32-6.864 0-13.291 1.716-19.247 5.173-5.957 3.448-10.632 8.148-14.04 14.05-3.392 5.92-5.108 12.391-5.108 19.42 0 10.518 3.647 19.593 10.97 27.231 7.314 7.657 16.5 11.47 27.525 11.47 10.557 0 19.526-3.702 26.916-11.16 7.402-7.435 11.089-16.544 11.089-27.286 0-10.841-3.741-20.04-11.24-27.578"/><path fill="#347eb4" d="M876.139 322.93h20.972v73.646h-13.919V336.1h-15.161l8.108-13.17"/><path fill="#3988c1" d="M972.639 377.657c-4.655 4.8-10.327 7.195-16.967 7.195-5.863 0-11.08-1.836-15.61-5.553-5.843-4.724-8.777-11.175-8.777-19.318 0-7.304 2.326-13.334 6.98-18.064 4.626-4.76 10.343-7.109 17.163-7.109 6.744 0 12.467 2.404 17.161 7.283 4.72 4.845 7.084 10.786 7.084 17.796 0 7.024-2.344 12.96-7.034 17.77m9.798-45.254c-7.484-7.543-16.448-11.32-26.865-11.32-6.875 0-13.295 1.716-19.237 5.173-5.967 3.448-10.656 8.148-14.054 14.05-3.408 5.92-5.104 12.391-5.104 19.42 0 10.518 3.656 19.593 10.966 27.231 7.313 7.657 16.498 11.47 27.529 11.47 10.547 0 19.521-3.702 26.915-11.16 7.404-7.435 11.09-16.544 11.09-27.286 0-10.841-3.732-20.04-11.24-27.578"/><path fill="#347eb4" d="M1011.039 322.93h20.989v73.646h-13.935V336.1h-15.146l8.092-13.17"/><path fill="#3c8ecc" d="M1107.57 377.657c-4.68 4.8-10.331 7.195-16.982 7.195-5.877 0-11.07-1.836-15.616-5.553-5.847-4.724-8.77-11.175-8.77-19.318 0-7.304 2.34-13.334 6.98-18.064 4.629-4.76 10.351-7.109 17.171-7.109 6.746 0 12.447 2.404 17.167 7.283 4.715 4.845 7.075 10.786 7.075 17.796 0 7.024-2.35 12.96-7.026 17.77m9.794-45.254c-7.503-7.543-16.448-11.32-26.88-11.32-6.86 0-13.286 1.716-19.238 5.173-5.961 3.448-10.636 8.148-14.044 14.05-3.392 5.92-5.098 12.391-5.098 19.42 0 10.518 3.642 19.593 10.966 27.231 7.319 7.657 16.488 11.47 27.519 11.47 10.556 0 19.521-3.702 26.916-11.16 7.397-7.435 11.095-16.544 11.095-27.286 0-10.841-3.747-20.04-11.236-27.578"/><path fill="#4aabe4" d="M1145.965 322.93h20.994v73.646h-13.93V336.1h-15.161l8.097-13.17"/><path fill="#4ebfe6" d="M1198.33 322.93h20.962v73.646h-13.919V336.1h-15.156l8.112-13.17"/><path fill="#48acdb" d="M1295.604 377.657c-4.676 4.8-10.337 7.195-16.983 7.195-5.872 0-11.076-1.836-15.621-5.553-5.832-4.724-8.75-11.175-8.75-19.318 0-7.304 2.315-13.334 6.965-18.064 4.634-4.76 10.352-7.109 17.172-7.109 6.734 0 12.442 2.404 17.161 7.283 4.715 4.845 7.075 10.786 7.075 17.796 0 7.024-2.34 12.96-7.019 17.77m9.788-45.254c-7.488-7.543-16.444-11.32-26.865-11.32-6.875 0-13.306 1.716-19.243 5.173-5.972 3.448-10.647 8.148-14.044 14.05-3.403 5.92-5.119 12.391-5.119 19.42 0 10.518 3.667 19.593 10.976 27.231 7.319 7.657 16.488 11.47 27.524 11.47 10.547 0 19.512-3.702 26.915-11.16 7.399-7.435 11.096-16.544 11.096-27.286 0-10.841-3.741-20.04-11.24-27.578"/><path fill="#44a2d6" d="M1333.987 322.93h21v73.646h-13.934V336.1h-15.161l8.095-13.17"/><path fill="#449cd5" d="M1386.32 322.93h20.987v73.646h-13.92V336.1H1378.2l8.12-13.17"/><path fill="#53a1d2" d="M1439.693 322.93h20.974v73.646h-13.907V336.1h-15.173l8.106-13.17"/><path fill="#4c97cc" d="M1536.2 377.657c-4.653 4.8-10.333 7.195-16.96 7.195-5.88 0-11.08-1.836-15.627-5.553-5.826-4.724-8.76-11.175-8.76-19.318 0-7.304 2.334-13.334 6.974-18.064 4.613-4.76 10.346-7.109 17.173-7.109 6.733 0 12.44 2.404 17.147 7.283 4.733 4.845 7.08 10.786 7.08 17.796 0 7.024-2.334 12.96-7.027 17.77m9.8-45.254c-7.48-7.543-16.44-11.32-26.867-11.32-6.866 0-13.293 1.716-19.253 5.173-5.96 3.448-10.627 8.148-14.04 14.05-3.387 5.92-5.093 12.391-5.093 19.42 0 10.518 3.64 19.593 10.96 27.231 7.32 7.657 16.493 11.47 27.533 11.47 10.547 0 19.52-3.702 26.907-11.16 7.4-7.435 11.093-16.544 11.093-27.286 0-10.841-3.747-20.04-11.24-27.578"/><path fill="#3783bc" d="M55.47 377.732c-4.67 4.8-10.32 7.2-16.963 7.2-5.882 0-11.07-1.841-15.63-5.559-5.828-4.718-8.763-11.169-8.763-19.312 0-7.304 2.34-13.335 6.98-18.065 4.624-4.759 10.356-7.108 17.181-7.108 6.726 0 12.447 2.404 17.144 7.279 4.718 4.849 7.075 10.79 7.075 17.8 0 7.024-2.348 12.961-7.025 17.765m9.8-45.255c-7.487-7.539-16.448-11.315-26.854-11.315-6.878 0-13.308 1.717-19.26 5.17-5.962 3.447-10.65 8.147-14.04 14.053C1.717 346.297 0 352.777 0 359.801c0 10.523 3.66 19.592 10.973 27.236 7.314 7.658 16.493 11.47 27.534 11.47 10.54 0 19.512-3.703 26.918-11.162 7.391-7.428 11.088-16.537 11.088-27.284 0-10.84-3.75-20.04-11.245-27.584"/></svg>