<svg xmlns="http://www.w3.org/2000/svg" width="243" height="43" fill="none" viewBox="0 0 243 43"><g clip-path="url(#Frame_clip0-11-8)"><path fill="#111" d="M81.219 12.0667V34.5577H85.128V19.0732H85.337L91.553 34.4918H94.474L100.69 19.1061H100.898V34.5577H104.808V12.0667H99.822L93.145 28.3639H92.882L86.205 12.0667H81.219ZM113.923 34.8981C116.57 34.8981 118.151 33.6571 118.876 32.2405H119.008V34.5577H122.829V23.2683C122.829 18.8096 119.194 17.4698 115.977 17.4698C112.429 17.4698 109.706 19.0512 108.827 22.1262L112.539 22.6533C112.935 21.5002 114.055 20.5118 115.999 20.5118C117.843 20.5118 118.854 21.4563 118.854 23.1145V23.1804C118.854 24.3225 117.657 24.3774 114.681 24.6959C111.408 25.0473 108.278 26.0247 108.278 29.8245C108.278 33.141 110.705 34.8981 113.923 34.8981ZM114.955 31.9769C113.297 31.9769 112.111 31.2192 112.111 29.7586C112.111 28.2321 113.44 27.5951 115.219 27.3426C116.262 27.1998 118.349 26.9362 118.865 26.5189V28.5066C118.865 30.3845 117.349 31.9769 114.955 31.9769ZM135.25 17.6895H131.922V13.6481H127.947V17.6895H125.553V20.7644H127.947V30.1429C127.925 33.3167 130.231 34.8761 133.218 34.7883C134.349 34.7553 135.129 34.5357 135.557 34.3929L134.887 31.2851C134.668 31.34 134.217 31.4388 133.723 31.4388C132.724 31.4388 131.922 31.0874 131.922 29.484V20.7644H135.25V17.6895ZM145.861 34.8871C149.793 34.8871 152.494 32.9653 153.197 30.0331L149.485 29.6158C148.947 31.0435 147.629 31.7902 145.916 31.7902C143.346 31.7902 141.644 30.099 141.611 27.2108H153.362V25.9918C153.362 20.0725 149.804 17.4698 145.652 17.4698C140.82 17.4698 137.669 21.017 137.669 26.2224C137.669 31.5157 140.776 34.8871 145.861 34.8871ZM141.622 24.5312C141.743 22.3787 143.335 20.5667 145.707 20.5667C147.992 20.5667 149.529 22.236 149.551 24.5312H141.622ZM156.725 34.5577H160.7V24.641C160.7 22.4995 162.315 20.984 164.5 20.984C165.17 20.984 166.005 21.1048 166.345 21.2147V17.5577C165.983 17.4918 165.357 17.4479 164.917 17.4479C162.985 17.4479 161.37 18.5461 160.755 20.5008H160.58V17.6895H156.725V34.5577ZM168.986 34.5577H172.962V17.6895H168.986V34.5577ZM170.985 15.2954C172.248 15.2954 173.28 14.329 173.28 13.143C173.28 11.9459 172.248 10.9795 170.985 10.9795C169.711 10.9795 168.679 11.9459 168.679 13.143C168.679 14.329 169.711 15.2954 170.985 15.2954ZM181.904 34.8981C184.55 34.8981 186.132 33.6571 186.856 32.2405H186.988V34.5577H190.81V23.2683C190.81 18.8096 187.175 17.4698 183.957 17.4698C180.41 17.4698 177.687 19.0512 176.808 22.1262L180.52 22.6533C180.915 21.5002 182.035 20.5118 183.979 20.5118C185.824 20.5118 186.835 21.4563 186.835 23.1145V23.1804C186.835 24.3225 185.637 24.3774 182.661 24.6959C179.389 25.0473 176.259 26.0247 176.259 29.8245C176.259 33.141 178.686 34.8981 181.904 34.8981ZM182.936 31.9769C181.278 31.9769 180.092 31.2192 180.092 29.7586C180.092 28.2321 181.42 27.5951 183.2 27.3426C184.243 27.1998 186.329 26.9362 186.845 26.5189V28.5066C186.845 30.3845 185.33 31.9769 182.936 31.9769ZM198.783 12.0667H194.807V34.5577H198.783V12.0667ZM202.871 34.5577H206.846V17.6895H202.871V34.5577ZM204.87 15.2954C206.132 15.2954 207.165 14.329 207.165 13.143C207.165 11.9459 206.132 10.9795 204.87 10.9795C203.596 10.9795 202.563 11.9459 202.563 13.143C202.563 14.329 203.596 15.2954 204.87 15.2954ZM210.715 34.5577H224.563V31.2631H215.997V31.1203L224.277 20.402V17.6895H211V20.984H219.412V21.1268L210.715 32.0318V34.5577ZM235.284 34.8871C239.215 34.8871 241.917 32.9653 242.62 30.0331L238.908 29.6158C238.37 31.0435 237.052 31.7902 235.339 31.7902C232.769 31.7902 231.067 30.099 231.034 27.2108H242.785V25.9918C242.785 20.0725 239.226 17.4698 235.075 17.4698C230.243 17.4698 227.091 21.017 227.091 26.2224C227.091 31.5157 230.199 34.8871 235.284 34.8871ZM231.045 24.5312C231.166 22.3787 232.758 20.5667 235.13 20.5667C237.414 20.5667 238.952 22.236 238.974 24.5312H231.045Z"/><path fill="#111" d="M51.466 0.378796V6.6055L51.457 43.4703H41.455V4.0044L44.5896 0.812497C44.722 0.669397 44.8837 0.556498 45.0637 0.481698C45.2436 0.406798 45.4376 0.371696 45.6323 0.378796H51.466Z" opacity=".7"/><path fill="#111" fill-rule="evenodd" d="M36.1692 29.4453C35.4635 28.5405 34.7597 27.638 34.0689 26.9472C32.791 25.6739 31.5221 24.3914 30.2543 23.11C29.6216 22.4706 28.9891 21.8314 28.3559 21.1936V16.7583L28.358 16.7493C28.3523 16.5545 28.3887 16.3609 28.4647 16.1815C28.5153 16.0622 28.5826 15.9512 28.6642 15.8515L38.3604 6.5627V7.0586V30.7988C38.3598 30.8322 38.361 30.9478 38.3626 31.096C38.3662 31.44 38.3716 31.96 38.3604 32.0368C37.6364 31.3266 36.9018 30.3847 36.1692 29.4453Z" clip-rule="evenodd" opacity=".7"/><path fill="#111" d="M0.143002 11.8863V25.8778L17.7964 43.4703H31.8353L0.143002 11.8863Z"/><path fill="#111" d="M0.143002 43.4703H13.1191L0.143002 30.5416V43.4703Z"/><path fill="#111" d="M36.568 43.4703H50.469L8.5437 0.8128C8.4114 0.6699 8.2497 0.557098 8.0698 0.482398C7.8899 0.407598 7.696 0.372599 7.5013 0.379599H0.157001V6.5999L36.568 43.4703Z"/></g><defs><clipPath id="Frame_clip0-11-8"><rect width="243" height="43" fill="#fff"/></clipPath></defs></svg>