<svg xmlns="http://www.w3.org/2000/svg" xmlns:xlink="http://www.w3.org/1999/xlink" width="100%" height="100%" version="1.1" viewBox="0 0 512 512" xml:space="preserve" style="fill-rule:evenodd;clip-rule:evenodd;stroke-linecap:round;stroke-linejoin:round;stroke-miterlimit:1.5"><link id="dark-mode-general-link" rel="stylesheet" type="text/css"/><link id="dark-mode-custom-link" rel="stylesheet" type="text/css"/><style id="dark-mode-custom-style" type="text/css"/><g transform="matrix(1,0,0,1,-15.529,18.4121)"><g id="L"><g><path d="M83.153,47.843L83.153,83.312L110.435,65.578L83.153,47.843Z" style="fill:#00b5d8" transform="matrix(-2.48814,0,0,-3.82763,546.307,386.771)"/></g><g><path d="M83.153,47.843L83.153,83.312L110.435,65.578L83.153,47.843Z" style="fill:#00b5d8" transform="matrix(-2.48814,0,0,-3.82763,546.307,522.535)"/></g><g><path d="M83.153,47.843L83.153,83.312L110.435,65.578L83.153,47.843Z" style="fill:#00b5d8" transform="matrix(2.48814,0,0,3.82763,64.6328,-47.3597)"/></g><g><path d="M83.153,47.843L83.153,83.312L110.435,65.578L83.153,47.843Z" style="fill:#00b5d8" transform="matrix(2.48814,0,0,3.82763,64.6328,88.4048)"/></g><g><path d="M83.153,47.843L83.153,83.312L110.435,65.578L83.153,47.843Z" style="fill:#00b5d8" transform="matrix(1.52354e-16,-2.48814,3.82763,2.34375e-16,88.4048,614.19)"/></g><g><path d="M83.153,47.843L83.153,83.312L110.435,65.578L83.153,47.843Z" style="fill:#00b5d8" transform="matrix(1.52354e-16,2.48814,3.82763,-2.34375e-16,156.287,132.515)"/></g></g><g><g><path d="M83.153,47.843L83.153,83.312L110.435,65.578L83.153,47.843Z" style="fill:#0bc5ea" transform="matrix(2.48814,0,0,3.82763,-139.014,-115.242)"/></g><g><path d="M83.153,47.843L83.153,83.312L110.435,65.578L83.153,47.843Z" style="fill:#0bc5ea" transform="matrix(2.48814,0,0,3.82763,-139.014,20.5225)"/></g><g><path d="M83.153,47.843L83.153,83.312L110.435,65.578L83.153,47.843Z" style="fill:#0bc5ea" transform="matrix(2.48814,0,0,3.82763,-71.1317,-47.3597)"/></g><g><path d="M83.153,47.843L83.153,83.312L110.435,65.578L83.153,47.843Z" style="fill:#0bc5ea" transform="matrix(2.48814,0,0,3.82763,-3.24941,20.5225)"/></g><g><path d="M83.153,47.843L83.153,83.312L110.435,65.578L83.153,47.843Z" style="fill:#0bc5ea" transform="matrix(2.48814,0,0,3.82763,-3.24941,-115.242)"/></g><g><path d="M83.153,47.843L83.153,83.312L110.435,65.578L83.153,47.843Z" style="fill:#0bc5ea" transform="matrix(-2.48814,0,0,-3.82763,342.661,454.653)"/></g><g><path d="M83.153,47.843L83.153,83.312L110.435,65.578L83.153,47.843Z" style="fill:#0bc5ea" transform="matrix(-2.48814,0,0,-3.82763,342.661,590.418)"/></g><g><path d="M83.153,47.843L83.153,83.312L110.435,65.578L83.153,47.843Z" style="fill:#0bc5ea" transform="matrix(-2.48814,0,0,-3.82763,410.543,522.535)"/></g><g><path d="M83.153,47.843L83.153,83.312L110.435,65.578L83.153,47.843Z" style="fill:#0bc5ea" transform="matrix(-2.48814,0,0,-3.82763,478.425,590.418)"/></g><g><path d="M83.153,47.843L83.153,83.312L110.435,65.578L83.153,47.843Z" style="fill:#0bc5ea" transform="matrix(-2.48814,0,0,-3.82763,478.425,454.653)"/></g></g></g></svg>