<svg viewBox="0 0 726 131" fill="none" xmlns="http://www.w3.org/2000/svg"><path d="M30 44.2L52.6 5H7.30001L30 44.2ZM4.60001 88.5H49.9L27.2 49.4L4.60001 88.5ZM55.6 88.5L78.2 127.7L100.8 88.5H55.6Z" fill="#C160EF"/><path d="M52.6 5L30 44.2H75.2L52.6 5ZM27.2 49.4L49.9 88.5L72.5 49.4H27.2ZM78.2 49.4L55.6 88.5H100.8L78.2 49.4Z" fill="#A60EE5"/><path d="M160.2 50.1C160.1 62.8 152.1 75 135.9 75C119.7 75 111.6 62.7 111.6 50C111.6 37 119.7 25.2 135.9 25.2C152.2 25.1 160.3 37 160.2 50.1V50.1ZM115.3 50C115.4 60.9 122.3 71.5 136 71.5C149.8 71.5 156.7 60.9 156.7 50C156.7 38.8 149.8 28.6 136 28.6C122.1 28.6 115.2 38.6 115.3 50V50ZM168.4 88.3V40.1H171.7V48.2C174.4 43 179.8 39.7 186.4 39.7C195.6 40 202.9 46.2 202.9 57.2C202.9 68.6 195.2 74.8 185.6 74.8C179.8 74.8 174.4 72 171.5 66.3V88.3H168.4V88.3ZM199.6 57.1C199.6 47.5 193.4 42.8 185.7 42.8C177.8 42.8 171.9 48.8 171.9 57.1C171.9 65.4 177.9 71.4 185.7 71.4C193.4 71.5 199.6 66.7 199.6 57.1ZM209.4 57.1C209.4 46.9 217.1 39.5 226.7 39.5C236.3 39.5 244.8 45.4 243.5 58.6H212.8C213.5 66.6 219.6 71.2 226.6 71.2C231.1 71.2 236.3 69.4 238.9 66L241.3 67.9C238 72.2 232.1 74.4 226.6 74.4C217.1 74.6 209.4 67.9 209.4 57.1V57.1ZM240.4 55.7C240.3 47.3 234.8 42.6 226.6 42.6C219.6 42.6 213.5 47.4 212.8 55.7H240.4V55.7ZM255.5 40.1V46.2C258.1 41.5 262.9 39.6 267.6 39.5C276.7 39.5 283 45.1 283 54.5V74.1H279.6V54.5C279.6 46.8 274.8 42.7 267.5 42.7C260.5 42.8 255.6 48.1 255.6 55.1V74H252.2V40H255.5V40.1ZM351.4 25.9L331.6 74.3H327.6L307.8 25.9H311.8L329.6 70L347.4 25.9H351.4V25.9ZM389.1 35.2C385.6 29.6 379.9 28.7 374.5 28.7C368.9 28.7 359.9 30.8 359.9 38.5C359.9 44.6 366.5 46.1 374.6 47.6C383.9 49.4 393.5 51 393.5 61.4C393.4 72.3 382.5 74.9 374.4 74.9C366.9 74.9 358.3 71.8 354.6 64.4L357.9 62.7C360.9 68.6 368.4 71.4 374.4 71.4C380.4 71.4 389.8 69.7 389.8 61.2C389.9 54 381.9 52.4 374 50.9C365.2 49.2 356.2 47.4 356.2 38.5C356 28.3 366.6 25.1 374.5 25.1C381.4 25.1 387.4 26.2 392.1 33.3L389.1 35.2V35.2ZM433.7 25.9H437.7V26L421.3 49.4L439 74V74.1H434.6L419 52.1L403.4 74.1H399V74L416.7 49.3L400.4 26V25.9H404.5L419 46.5L433.7 25.9V25.9ZM503.4 74.1H498.5L481.8 55.8H468.6V74.1H464.9V25.9H486.1C496.6 25.9 501.9 33.4 501.9 40.9C502 48.8 496.8 55.6 486.3 55.6L503.4 74.1V74.1ZM468.6 52.3H485.7C494.1 52.3 497.8 47.5 497.9 40.8C498 35.2 494.1 29.3 486.1 29.3H468.6V52.3ZM507 57.1C507 46.9 514.7 39.5 524.3 39.5C533.9 39.5 542.4 45.4 541.1 58.6H510.4C511.1 66.6 517.2 71.2 524.2 71.2C528.7 71.2 533.9 69.4 536.5 66L539 68C535.7 72.3 529.8 74.5 524.3 74.5C514.7 74.6 507 67.9 507 57.1V57.1ZM538.1 55.7C538 47.3 532.5 42.6 524.3 42.6C517.3 42.6 511.2 47.4 510.5 55.7H538.1ZM577.2 38.7L579.4 40.6L576.1 44.5C578.5 47.1 580.3 50.6 580.3 56.1C580.3 62 576.8 68 571.1 70.6C577.1 72.7 580.4 76.9 580.4 82.8C580.4 92 573.2 96.4 564.2 96.4C555.2 96.4 548.1 91.4 548.1 82.8H551.5C551.5 89.8 557.4 93.1 564.2 93.1C571 93.1 577.1 90.1 577.1 82.8C577.1 75.5 570.6 72.6 564.2 72.6C554.3 72.6 548.2 65.2 548.2 56.1C548.2 45.5 555.4 39.5 564.2 39.5C567.6 39.5 571.2 40.7 573.8 42.6L577.2 38.7ZM551.6 56.1C551.6 63.1 556.4 69.2 564.2 69.2C571.2 69.2 576.9 63.1 576.9 56.1C576.9 47.5 571.2 42.9 564.2 42.9C557.3 42.8 551.6 47.2 551.6 56.1ZM591.7 29C591.7 32.6 586.3 32.6 586.3 29C586.3 25.4 591.7 25.4 591.7 29ZM587.3 39.9V74.1H590.7V39.9H587.3ZM623.6 46.3C620.2 43.3 616.8 42.7 613 42.7C607.7 42.6 602.6 44.6 602.7 49C602.8 53.5 608.8 54.4 613 55.2C619.1 56.2 627.4 57.3 627.1 65.2C626.9 72.7 619.1 74.7 613.1 74.7C607.1 74.7 601.2 72.4 598.2 67.9L600.7 65.7C603.5 69.8 608.6 71.5 613.2 71.5C617.3 71.5 623.6 70.4 623.8 65C623.9 60.1 618.3 59.1 612.7 58.2C606.1 57.1 599.5 55.9 599.5 49C599.4 42.3 606.1 39.4 613 39.5C618 39.5 622.3 40.9 625.7 44L623.6 46.3V46.3ZM642.4 29.8V40.1H654V42.9H642.4V63.6C642.4 68.2 643.4 71.5 648.7 71.5C650.4 71.5 652.2 70.9 653.9 70.1L655.1 72.9C653 73.9 650.8 74.6 648.7 74.6C641.5 74.6 639.1 70.3 639.1 63.6V42.9H631.9V40.1H639.1V30.2L642.4 29.8V29.8ZM665 40.1L665.1 46.2C667.2 41.6 672.1 39.8 676.4 39.8C678.9 39.7 681.4 40.4 683.7 41.8L682.2 44.6C680.4 43.5 678.4 43 676.4 43C670.1 43.1 665.2 48.2 665.2 54.4V74.2H661.8V40.2H665V40.1ZM720 40.1L699.3 88.3H695.7L702 73.7L688.4 40.1H692.1L700 60.2L704 70.1L707.9 60.2L716.4 40.2H720V40.1Z" fill="#000"/></svg>