<?xml version="1.0" encoding="UTF-8"?>
<svg xmlns="http://www.w3.org/2000/svg" xmlns:xlink="http://www.w3.org/1999/xlink" width="220pt" height="31pt" viewBox="0 0 220 31" version="1.1">
<g id="surface1">
<path style=" stroke:none;fill-rule:nonzero;fill:rgb(0%,0%,0%);fill-opacity:1;" d="M 207.648438 0.222656 C 207.648438 0.222656 208.992188 0.222656 209.550781 0.636719 C 209.550781 0.636719 210.113281 1.046875 210.546875 2.304688 L 219.933594 29.777344 C 219.933594 29.777344 220.066406 30.121094 219.957031 30.40625 C 219.957031 30.40625 219.851562 30.6875 219.371094 30.6875 L 215.394531 30.6875 C 215.394531 30.6875 214.917969 30.6875 214.636719 30.578125 C 214.636719 30.578125 214.355469 30.472656 214.179688 29.996094 L 212.277344 24.050781 L 201.289062 24.050781 L 199.386719 29.949219 C 199.386719 29.949219 199.253906 30.339844 199.019531 30.515625 C 199.019531 30.515625 198.78125 30.6875 198.261719 30.6875 L 194.28125 30.6875 C 194.28125 30.6875 193.804688 30.6875 193.675781 30.40625 C 193.675781 30.40625 193.546875 30.121094 193.675781 29.777344 L 203.019531 2.304688 C 203.019531 2.304688 203.238281 1.65625 203.453125 1.265625 C 203.453125 1.265625 203.671875 0.875 203.992188 0.660156 C 203.992188 0.660156 204.320312 0.441406 204.75 0.332031 C 204.75 0.332031 205.183594 0.222656 205.789062 0.222656 Z M 206.828125 6.082031 L 206.613281 6.082031 L 204.835938 12.109375 L 202.589844 19.523438 L 210.894531 19.523438 L 208.644531 12.238281 Z M 206.828125 6.082031 "/>
<path style=" stroke:none;fill-rule:nonzero;fill:rgb(0%,0%,0%);fill-opacity:1;" d="M 118.3125 0.304688 C 118.3125 0.304688 118.917969 0.304688 119.132812 0.460938 C 119.132812 0.460938 119.351562 0.609375 119.351562 1.21875 L 119.351562 12.472656 L 132.804688 12.472656 L 132.804688 1.21875 C 132.804688 1.21875 132.804688 0.652344 133.046875 0.480469 C 133.046875 0.480469 133.285156 0.304688 133.800781 0.304688 L 137.097656 0.304688 C 137.097656 0.304688 137.703125 0.304688 137.898438 0.460938 C 137.898438 0.460938 138.09375 0.609375 138.09375 1.21875 L 138.09375 29.777344 C 138.09375 29.777344 138.09375 30.382812 137.898438 30.539062 C 137.898438 30.539062 137.703125 30.6875 137.097656 30.6875 L 133.800781 30.6875 C 133.800781 30.6875 133.285156 30.6875 133.046875 30.515625 C 133.046875 30.515625 132.804688 30.339844 132.804688 29.777344 L 132.804688 17.023438 L 119.351562 17.023438 L 119.351562 29.777344 C 119.351562 29.777344 119.351562 30.382812 119.132812 30.539062 C 119.132812 30.539062 118.917969 30.6875 118.3125 30.6875 L 115.027344 30.6875 C 115.027344 30.6875 114.554688 30.6875 114.296875 30.515625 C 114.296875 30.515625 114.035156 30.339844 114.035156 29.777344 L 114.035156 1.21875 C 114.035156 1.21875 114.035156 0.652344 114.296875 0.480469 C 114.296875 0.480469 114.554688 0.304688 115.027344 0.304688 Z M 118.3125 0.304688 "/>
<path style=" stroke:none;fill-rule:nonzero;fill:rgb(0%,0%,0%);fill-opacity:1;" d="M 105.128906 0.304688 C 105.128906 0.304688 105.605469 0.304688 105.757812 0.480469 C 105.757812 0.480469 105.90625 0.65625 105.90625 1.132812 L 105.90625 4.136719 C 105.90625 4.136719 105.90625 4.570312 105.757812 4.742188 C 105.757812 4.742188 105.605469 4.917969 105.128906 4.917969 L 96.914062 4.917969 L 96.914062 29.777344 C 96.914062 29.777344 96.914062 30.382812 96.71875 30.539062 C 96.71875 30.539062 96.519531 30.6875 95.914062 30.6875 L 92.535156 30.6875 C 92.535156 30.6875 92.015625 30.6875 91.777344 30.515625 C 91.777344 30.515625 91.539062 30.339844 91.539062 29.777344 L 91.539062 4.917969 L 83.492188 4.917969 C 83.492188 4.917969 83.019531 4.917969 82.886719 4.742188 C 82.886719 4.742188 82.757812 4.570312 82.757812 4.136719 L 82.757812 1.132812 C 82.757812 1.132812 82.757812 0.65625 82.886719 0.480469 C 82.886719 0.480469 83.019531 0.304688 83.492188 0.304688 Z M 105.128906 0.304688 "/>
<path style=" stroke:none;fill-rule:nonzero;fill:rgb(0%,0%,0%);fill-opacity:1;" d="M 50.332031 0.125 C 58.78125 0.125 65.621094 6.988281 65.621094 15.464844 C 65.621094 23.933594 58.78125 30.800781 50.332031 30.800781 L 16.621094 30.800781 C 15.417969 30.800781 14.441406 29.824219 14.441406 28.613281 C 14.441406 27.40625 15.417969 26.425781 16.621094 26.425781 L 24.476562 26.425781 C 25.675781 26.425781 26.652344 25.445312 26.652344 24.234375 C 26.652344 23.027344 25.675781 22.046875 24.476562 22.046875 L 22.730469 22.046875 C 21.523438 22.046875 20.546875 21.066406 20.546875 19.859375 C 20.546875 18.648438 21.523438 17.671875 22.730469 17.671875 L 27.96875 17.671875 C 29.179688 17.667969 30.121094 16.675781 30.148438 15.480469 C 30.148438 14.273438 29.171875 13.292969 27.96875 13.292969 L 9.636719 13.292969 C 8.429688 13.292969 7.453125 12.3125 7.453125 11.105469 C 7.453125 9.894531 8.429688 8.914062 9.636719 8.914062 L 23.164062 8.914062 C 24.375 8.910156 25.316406 7.921875 25.34375 6.726562 C 25.34375 5.519531 24.367188 4.539062 23.164062 4.539062 L 20.113281 4.539062 C 18.90625 4.539062 17.929688 3.558594 17.929688 2.347656 C 17.929688 1.140625 18.90625 0.101562 20.113281 0.101562 Z M 47.886719 5.238281 C 43.191406 5.238281 39.390625 9.054688 39.390625 13.757812 L 39.390625 17.164062 C 39.390625 21.875 43.191406 25.6875 47.886719 25.6875 C 52.574219 25.6875 56.378906 21.875 56.378906 17.164062 L 56.378906 13.757812 C 56.378906 9.054688 52.574219 5.238281 47.886719 5.238281 Z M 50.789062 13.292969 C 51.917969 13.292969 52.839844 14.214844 52.839844 15.351562 L 52.839844 15.613281 C 52.839844 16.746094 51.917969 17.671875 50.789062 17.671875 L 44.414062 17.671875 C 43.28125 17.671875 42.363281 16.746094 42.363281 15.613281 L 42.363281 15.351562 C 42.363281 14.214844 43.28125 13.292969 44.414062 13.292969 Z M 50.789062 13.292969 "/>
<path style=" stroke:none;fill-rule:nonzero;fill:rgb(0%,0%,0%);fill-opacity:1;" d="M 9.769531 26.425781 C 10.90625 26.425781 11.820312 27.339844 11.820312 28.480469 L 11.820312 28.746094 C 11.820312 29.878906 10.90625 30.800781 9.769531 30.800781 L 2.222656 30.800781 C 1.089844 30.800781 0.171875 29.878906 0.171875 28.746094 L 0.171875 28.480469 C 0.171875 27.339844 1.089844 26.425781 2.222656 26.425781 Z M 9.769531 26.425781 "/>
<path style=" stroke:none;fill-rule:nonzero;fill:rgb(0%,0%,0%);fill-opacity:1;" d="M 168.679688 0.277344 C 168.679688 0.277344 169.238281 0.277344 169.390625 0.519531 C 169.390625 0.519531 169.542969 0.757812 169.542969 1.277344 L 169.542969 4.015625 C 169.542969 4.015625 169.542969 4.582031 169.390625 4.777344 C 169.390625 4.777344 169.238281 4.972656 168.679688 4.972656 L 157.171875 4.972656 C 157.171875 4.972656 155.527344 4.972656 154.855469 5.707031 C 154.855469 5.707031 154.1875 6.445312 154.1875 7.832031 L 154.1875 12.386719 L 167.25 12.386719 C 167.25 12.386719 167.8125 12.386719 167.964844 12.605469 C 167.964844 12.605469 168.113281 12.820312 168.113281 13.425781 L 168.113281 15.808594 C 168.113281 15.808594 168.113281 16.328125 167.964844 16.5625 C 167.964844 16.5625 167.8125 16.800781 167.25 16.800781 L 154.1875 16.800781 L 154.1875 23.144531 C 154.1875 23.144531 154.1875 24.53125 154.898438 25.25 C 154.898438 25.25 155.613281 25.96875 157.171875 25.96875 L 168.9375 25.96875 C 168.9375 25.96875 169.542969 25.96875 169.695312 26.183594 C 169.695312 26.183594 169.84375 26.398438 169.84375 27.007812 L 169.84375 29.691406 C 169.84375 29.691406 169.84375 30.167969 169.671875 30.425781 C 169.671875 30.425781 169.5 30.6875 168.9375 30.6875 L 156.605469 30.6875 C 156.605469 30.6875 154.3125 30.6875 152.839844 30.039062 C 152.839844 30.039062 151.367188 29.386719 150.480469 28.300781 C 150.480469 28.300781 149.589844 27.21875 149.246094 25.828125 C 149.246094 25.828125 148.898438 24.441406 148.898438 22.921875 L 148.898438 8.089844 C 148.898438 8.089844 148.898438 6.570312 149.308594 5.160156 C 149.308594 5.160156 149.722656 3.75 150.652344 2.664062 C 150.652344 2.664062 151.585938 1.582031 153.054688 0.929688 C 153.054688 0.929688 154.53125 0.277344 156.605469 0.277344 Z M 168.679688 0.277344 "/>
<path style=" stroke:none;fill-rule:nonzero;fill:rgb(0%,0%,0%);fill-opacity:1;" d="M 183.898438 0.304688 C 183.898438 0.304688 184.5 0.304688 184.71875 0.460938 C 184.71875 0.460938 184.933594 0.609375 184.933594 1.21875 L 184.933594 29.777344 C 184.933594 29.777344 184.933594 30.382812 184.71875 30.539062 C 184.71875 30.539062 184.5 30.6875 183.898438 30.6875 L 180.613281 30.6875 C 180.613281 30.6875 180.09375 30.6875 179.855469 30.515625 C 179.855469 30.515625 179.617188 30.339844 179.617188 29.777344 L 179.617188 1.21875 C 179.617188 1.21875 179.617188 0.652344 179.855469 0.480469 C 179.855469 0.480469 180.09375 0.304688 180.613281 0.304688 Z M 183.898438 0.304688 "/>
<path style=" stroke:none;fill-rule:nonzero;fill:rgb(0%,0%,0%);fill-opacity:1;" d="M 13.265625 0.160156 C 14.394531 0.160156 15.308594 1.082031 15.308594 2.21875 L 15.308594 2.488281 C 15.308594 3.621094 14.394531 4.539062 13.265625 4.539062 L 4.839844 4.539062 C 3.707031 4.539062 2.789062 3.621094 2.789062 2.488281 L 2.789062 2.21875 C 2.789062 1.082031 3.707031 0.160156 4.839844 0.160156 Z M 13.265625 0.160156 "/>
<path style=" stroke:none;fill-rule:nonzero;fill:rgb(0%,0%,0%);fill-opacity:1;" d="M 15.878906 17.671875 C 17.011719 17.671875 17.929688 18.59375 17.929688 19.726562 L 17.929688 19.992188 C 17.929688 21.125 17.011719 22.046875 15.878906 22.046875 L 11.253906 22.046875 C 10.121094 22.046875 9.203125 21.125 9.203125 19.992188 L 9.203125 19.726562 C 9.203125 18.59375 10.121094 17.671875 11.253906 17.671875 Z M 15.878906 17.671875 "/>
</g>
</svg>